HIERARCHY
ROOT SpineBase
{
  OFFSET 0.000000 0.000000 0.000000
  CHANNELS 6 Xposition Yposition Zposition Zrotation Xrotation Yrotation
  JOINT SpineMid
  {
    OFFSET 0.000000 32.790243 0.000000
    CHANNELS 3 Zrotation Xrotation Yrotation
    JOINT SpineShoulder
    {
      OFFSET 0.018874 24.397335 -0.832055
      CHANNELS 3 Zrotation Xrotation Yrotation
      JOINT Neck
      {
        OFFSET 0.034412 8.086332 -0.617293
        CHANNELS 3 Zrotation Xrotation Yrotation
        JOINT Head
        {
          OFFSET 4.662533 12.365843 5.852269
          CHANNELS 3 Zrotation Xrotation Yrotation
          End Site
          {
            OFFSET 0 0 0
          }
        }
      }
      JOINT ShoulderLeft
      {
        OFFSET -10.096000 -2.325904 -12.293711
        CHANNELS 3 Zrotation Xrotation Yrotation
        JOINT ElbowLeft
        {
          OFFSET -6.546106 -24.772769 -8.138925
          CHANNELS 3 Zrotation Xrotation Yrotation
          JOINT WristLeft
          {
            OFFSET 4.403062 -20.406072 -6.129799
            CHANNELS 3 Zrotation Xrotation Yrotation
            JOINT HandLeft
            {
              OFFSET 1.198807 -8.818341 -0.004219
              CHANNELS 3 Zrotation Xrotation Yrotation
              JOINT HandTipLeft
              {
                OFFSET 1.730072 -8.233342 -0.172139
                CHANNELS 3 Zrotation Xrotation Yrotation
                End Site
                {
                  OFFSET 0 0 0
                }
              }
              JOINT ThumbLeft
              {
                OFFSET 4.198485 1.980641 7.453333
                CHANNELS 3 Zrotation Xrotation Yrotation
                End Site
                {
                  OFFSET 0 0 0
                }
              }
            }
          }
        }
      }
      JOINT ShoulderRight
      {
        OFFSET 10.634438 -4.195108 12.245227
        CHANNELS 3 Zrotation Xrotation Yrotation
        JOINT ElbowRight
        {
          OFFSET 1.743196 -25.905502 3.066143
          CHANNELS 3 Zrotation Xrotation Yrotation
          JOINT WristRight
          {
            OFFSET 2.688759 -26.178859 -1.909718
            CHANNELS 3 Zrotation Xrotation Yrotation
            JOINT HandRight
            {
              OFFSET -1.032177 -8.988289 -1.350323
              CHANNELS 3 Zrotation Xrotation Yrotation
              JOINT HandTipRight
              {
                OFFSET 0.286549 -7.052088 -0.931804
                CHANNELS 3 Zrotation Xrotation Yrotation
                End Site
                {
                  OFFSET 0 0 0
                }
              }
              JOINT ThumbRight
              {
                OFFSET 2.656398 0.222408 -2.840307
                CHANNELS 3 Zrotation Xrotation Yrotation
                End Site
                {
                  OFFSET 0 0 0
                }
              }
            }
          }
        }
      }
    }
  }
  JOINT HipLeft
  {
    OFFSET -4.582782 1.927125 -8.692540
    CHANNELS 3 Zrotation Xrotation Yrotation
    JOINT KneeLeft
    {
      OFFSET -11.576981 -34.061187 -4.596625
      CHANNELS 3 Zrotation Xrotation Yrotation
      JOINT AnkleLeft
      {
        OFFSET -7.652117 -37.654310 3.027967
        CHANNELS 3 Zrotation Xrotation Yrotation
        JOINT FootLeft
        {
          OFFSET 1.272352 -7.398785 -7.057252
          CHANNELS 3 Zrotation Xrotation Yrotation
          End Site
          {
            OFFSET 0 0 0
          }
        }
      }
    }
  }
  JOINT HipRight
  {
    OFFSET 5.338787 0.129386 1.555959
    CHANNELS 3 Zrotation Xrotation Yrotation
    JOINT KneeRight
    {
      OFFSET -2.992215 -36.926193 -0.345365
      CHANNELS 3 Zrotation Xrotation Yrotation
      JOINT AnkleRight
      {
        OFFSET -9.224040 -37.552015 11.983901
        CHANNELS 3 Zrotation Xrotation Yrotation
        JOINT FootRight
        {
          OFFSET 1.930824 -7.988950 -4.887075
          CHANNELS 3 Zrotation Xrotation Yrotation
          End Site
          {
            OFFSET 0 0 0
          }
        }
      }
    }
  }
}
MOTION
Frames: 15
Frame Time: 0.033333
-35.471527 84.087961 341.454852 -1.400413 4.033353 -52.350862 -0.069237 -0.364995 52.324151 -0.093697 -0.179863 -0.099297 -2.285580 -1.918630 1.267169 0.000000 0.000000 0.000000 45.811657 10.978824 -23.145193 151.742572 -13.720393 77.216276 -4.793886 -14.839279 137.683302 -1.316933 -16.807928 -56.078733 0.000000 0.000000 0.000000 0.000000 0.000000 0.000000 -63.274450 73.403169 54.525200 142.186529 -44.465536 117.770418 11.337765 -1.818005 0.731450 30.289789 43.475453 -42.012874 0.000000 0.000000 0.000000 0.000000 0.000000 0.000000 11.079364 0.183498 53.375226 -8.208439 5.542035 -0.767298 -1.415179 -3.796802 3.840079 0.000000 0.000000 0.000000 4.049702 -1.352338 52.447990 0.252819 2.996453 -0.668059 4.903405 -0.919596 -1.775702 0.000000 0.000000 0.000000
-35.388670 84.129932 341.495728 -1.401182 3.969139 -50.990864 -0.069700 -0.348511 50.964787 -0.094991 -0.163589 -0.098289 -2.423700 -1.172241 1.082227 0.000000 0.000000 0.000000 41.469339 10.714407 -20.729359 146.897174 -20.208088 69.432798 7.795980 -18.710663 142.291693 14.806047 -17.306094 -89.772762 0.000000 0.000000 0.000000 0.000000 0.000000 0.000000 -59.978314 71.760707 49.997714 140.489030 -42.964264 113.948916 -3.030940 -8.640050 10.313641 27.880007 15.465776 -27.960393 0.000000 0.000000 0.000000 0.000000 0.000000 0.000000 10.397001 0.023797 51.882799 -7.821531 5.063036 -0.707099 -1.394563 -4.084904 3.742245 0.000000 0.000000 0.000000 4.934431 -1.975753 51.205105 0.074716 4.088052 -0.760969 5.454285 -0.577424 -2.011433 0.000000 0.000000 0.000000
-35.272090 84.216138 341.557599 -1.425625 4.002155 -47.994963 -0.145004 -0.302414 47.969324 -0.098838 -0.114043 -0.099969 -2.429266 -0.784349 0.913559 0.000000 0.000000 0.000000 37.651392 10.508242 -18.665070 139.004107 -26.334849 63.132704 14.473992 -16.735062 118.160041 29.829479 -11.422919 -100.821451 0.000000 0.000000 0.000000 0.000000 0.000000 0.000000 -57.411098 69.707160 45.835416 137.759287 -40.473420 108.509420 -4.354587 -7.539730 10.287969 24.622785 4.223567 -22.025032 0.000000 0.000000 0.000000 0.000000 0.000000 0.000000 9.369806 -0.126666 48.590643 -7.410197 3.981986 -0.508516 -1.324531 -3.870676 3.688773 0.000000 0.000000 0.000000 5.297559 -2.933970 48.308993 0.305208 4.848778 -0.829168 5.617525 -1.083641 -2.206941 0.000000 0.000000 0.000000
-35.161563 84.321422 341.622160 -1.482490 4.103680 -42.455258 -0.302174 -0.179520 42.430937 -0.104130 -0.038672 -0.104246 -2.221232 -0.820333 0.750838 0.000000 0.000000 0.000000 34.645367 10.449611 -17.112713 131.066913 -30.368758 57.207394 10.568455 -17.970683 98.501839 48.810076 -14.638958 -113.631067 0.000000 0.000000 0.000000 0.000000 0.000000 0.000000 -54.860988 68.261989 42.505015 135.342024 -38.052610 104.315291 2.764827 -4.665678 5.810119 19.119846 -7.174592 -12.873869 0.000000 0.000000 0.000000 0.000000 0.000000 0.000000 8.145808 -0.221223 42.604287 -7.016542 2.405982 -0.175337 -1.408666 -3.229190 3.822177 0.000000 0.000000 0.000000 5.823153 -4.572027 42.951256 0.515324 6.108488 -0.945750 5.341647 -2.583596 -2.346066 0.000000 0.000000 0.000000
-35.056170 84.456047 341.679744 -1.582900 4.302682 -36.856334 -0.446711 -0.014845 36.835483 -0.107762 0.031237 -0.110669 -1.732863 -1.090733 0.533009 0.000000 0.000000 0.000000 31.873256 10.670569 -15.844303 115.150432 -31.646571 42.642426 9.215455 -21.532890 84.566179 62.007282 -8.339480 -109.061307 0.000000 0.000000 0.000000 0.000000 0.000000 0.000000 -52.249056 67.474134 39.918711 134.690121 -37.231926 103.091843 -0.927449 -11.303710 11.248838 -16.401488 -15.226576 4.868335 0.000000 0.000000 0.000000 0.000000 0.000000 0.000000 7.262609 -0.283583 36.629705 -6.683574 1.053105 0.117334 -1.202868 -2.648628 3.698372 0.000000 0.000000 0.000000 6.052305 -6.174165 37.515945 0.704224 7.157562 -1.046978 4.792505 -3.507255 -2.228269 0.000000 0.000000 0.000000
-34.950100 84.579700 341.753885 -1.707930 4.593651 -32.338860 -0.538125 0.147911 32.324201 -0.107387 0.085165 -0.117494 -1.170269 -1.409301 0.292837 0.000000 0.000000 0.000000 28.690841 10.469152 -14.236838 109.274167 -32.952165 37.896773 7.182310 -18.533442 70.389111 59.620939 2.403719 -96.346605 0.000000 0.000000 0.000000 0.000000 0.000000 0.000000 -48.828151 67.053266 37.216797 135.222203 -38.105118 104.095835 -2.339176 -11.519524 12.165450 -26.176388 -0.673039 7.967743 0.000000 0.000000 0.000000 0.000000 0.000000 0.000000 6.713508 -0.347324 31.836372 -6.394730 0.003071 0.344280 -1.026911 -2.103669 3.611927 0.000000 0.000000 0.000000 6.074123 -7.467454 33.113494 0.855169 7.852405 -1.117278 4.881948 -3.734553 -2.323060 0.000000 0.000000 0.000000
-34.837747 84.666249 341.835030 -1.813446 4.940546 -30.635517 -0.581869 0.281931 30.630052 -0.090803 0.127538 -0.120534 -1.275119 -1.516547 0.214795 0.000000 0.000000 0.000000 25.292174 9.683756 -12.397037 105.218079 -33.340194 32.394435 6.947179 -14.604777 60.225404 53.540812 9.382032 -84.511340 0.000000 0.000000 0.000000 0.000000 0.000000 0.000000 -45.843489 67.458298 35.564926 140.601952 -43.123317 111.788147 -20.016423 -14.492686 19.982576 -21.804962 26.830129 9.394397 0.000000 0.000000 0.000000 0.000000 0.000000 0.000000 6.511295 -0.505178 30.030653 -6.160906 -0.513880 0.441718 -0.858085 -1.448624 3.575107 0.000000 0.000000 0.000000 6.153137 -8.134600 31.466146 0.975454 8.107787 -1.148042 4.669846 -4.129562 -2.285170 0.000000 0.000000 0.000000
-34.738207 84.689416 341.935729 -1.901584 5.319239 -33.043660 -0.601835 0.350273 33.049474 -0.061227 0.148445 -0.120278 -2.028864 -1.388014 0.295571 0.000000 0.000000 0.000000 22.807458 8.600583 -10.935080 103.303813 -33.098076 27.957501 7.701627 -10.575060 53.510046 41.660892 12.383015 -67.697814 0.000000 0.000000 0.000000 0.000000 0.000000 0.000000 -42.262294 68.269557 33.837773 143.673536 -45.879289 117.438356 -27.127098 -14.090575 22.473588 -15.661380 34.641648 8.879328 0.000000 0.000000 0.000000 0.000000 0.000000 0.000000 6.760387 -0.747961 32.552686 -6.006576 -0.325908 0.370343 -0.793695 -1.009709 3.606277 0.000000 0.000000 0.000000 6.484198 -7.796588 33.851891 1.009159 7.696181 -1.119678 4.523504 -4.690042 -2.295154 0.000000 0.000000 0.000000
-34.666855 84.619993 342.018413 -1.960050 5.689199 -38.302608 -0.601204 0.350421 38.319887 -0.026369 0.147546 -0.117315 -3.363879 -1.100836 0.553797 0.000000 0.000000 0.000000 19.460051 8.107217 -9.497761 94.840877 -31.454735 20.707648 17.326911 -9.779598 46.949063 24.614399 16.879195 -47.872870 0.000000 0.000000 0.000000 0.000000 0.000000 0.000000 -38.204488 68.912448 31.620983 143.640497 -46.527240 119.461813 -38.184930 -2.688081 23.881646 -11.681075 27.378210 6.818541 0.000000 0.000000 0.000000 0.000000 0.000000 0.000000 7.514240 -1.058823 38.126862 -5.964920 0.531426 0.139217 -0.770695 -0.750606 3.668869 0.000000 0.000000 0.000000 6.881586 -6.745649 39.021667 0.993096 6.854807 -1.052351 4.430135 -5.055741 -2.284232 0.000000 0.000000 0.000000
-34.583664 84.525622 342.115418 -1.936970 5.980009 -42.039030 -0.550177 0.318980 42.064048 0.001278 0.125145 -0.111481 -5.208416 -0.463601 0.926775 0.000000 0.000000 0.000000 16.475324 7.821843 -8.369345 85.579953 -28.507915 14.177076 32.200697 -14.319122 48.829244 14.290513 22.728212 -41.100130 0.000000 0.000000 0.000000 0.000000 0.000000 0.000000 -34.317002 69.611506 29.500104 143.404605 -46.335015 121.035692 -55.904002 4.707104 30.459679 -0.399883 17.450311 1.885775 0.000000 0.000000 0.000000 0.000000 0.000000 0.000000 7.983101 -1.305834 42.085848 -5.830276 1.153172 -0.039908 -0.850900 -0.757964 3.797273 0.000000 0.000000 0.000000 6.931370 -5.986746 42.666476 1.017659 6.136097 -0.998181 4.250410 -5.187580 -2.178698 0.000000 0.000000 0.000000
-34.493303 84.411606 342.223337 -1.875458 6.191896 -45.429029 -0.450370 0.251032 45.458428 0.021094 0.079461 -0.104843 -7.282242 0.232045 1.434932 0.000000 0.000000 0.000000 14.061724 7.856167 -7.593058 77.071562 -24.981619 9.472423 52.085155 -24.256036 65.312460 16.976134 33.908800 -51.724089 0.000000 0.000000 0.000000 0.000000 0.000000 0.000000 -31.637346 70.663619 28.366086 137.968146 -43.808921 116.866221 -88.328904 2.544256 40.691475 24.304415 3.513054 -2.992447 0.000000 0.000000 0.000000 0.000000 0.000000 0.000000 8.404312 -1.502643 45.682950 -5.676127 1.747459 -0.212999 -0.972149 -1.079036 3.896034 0.000000 0.000000 0.000000 6.786523 -5.250664 45.952936 1.035321 5.401063 -0.944134 4.395951 -5.233377 -2.223788 0.000000 0.000000 0.000000
-34.408600 84.286140 342.329344 -1.838007 6.341498 -47.727270 -0.364607 0.178874 47.757997 0.022505 0.053508 -0.102539 -8.862876 0.766224 1.864834 0.000000 0.000000 0.000000 12.390509 8.060868 -7.104337 72.363913 -22.891385 7.437642 61.463001 -28.432145 73.402725 16.437602 36.606628 -51.288265 0.000000 0.000000 0.000000 0.000000 0.000000 0.000000 -29.614480 71.380710 27.454210 130.281568 -39.422896 109.605823 149.409610 27.966225 139.584047 -173.763863 -74.597344 179.346712 0.000000 0.000000 0.000000 0.000000 0.000000 0.000000 8.690920 -1.632006 48.121884 -5.508810 2.201616 -0.344074 -1.288673 -1.449644 4.158419 0.000000 0.000000 0.000000 6.622199 -4.749042 48.175390 1.047400 4.889017 -0.913544 4.566238 -5.507349 -2.318795 0.000000 0.000000 0.000000
-34.341081 84.174973 342.425759 -1.809816 6.485049 -49.060699 -0.326406 0.149241 49.092988 0.023898 0.056055 -0.100967 -10.134508 0.892599 2.262606 0.000000 0.000000 0.000000 11.004019 8.176701 -6.688658 69.598606 -21.884539 6.524705 68.567107 -31.044951 79.673499 17.921690 38.953701 -53.362816 0.000000 0.000000 0.000000 0.000000 0.000000 0.000000 -28.853998 71.431941 26.945501 120.847418 -32.466607 99.399259 123.545979 34.417782 166.293630 36.875982 -79.659013 52.510067 0.000000 0.000000 0.000000 0.000000 0.000000 0.000000 8.875487 -1.738439 49.535397 -5.423431 2.405535 -0.412337 -1.484017 -1.520779 4.367821 0.000000 0.000000 0.000000 6.567422 -4.512660 49.471323 1.042755 4.605877 -0.898413 4.982863 -5.595461 -2.523141 0.000000 0.000000 0.000000
-34.305415 84.093305 342.485739 -1.797931 6.581606 -49.167457 -0.332065 0.133800 49.199330 0.019605 0.063778 -0.101887 -10.887191 0.746978 2.551617 0.000000 0.000000 0.000000 10.162486 8.211337 -6.416798 69.023217 -21.353145 6.089010 73.564878 -36.674564 93.272549 30.625152 36.498566 -66.030482 0.000000 0.000000 0.000000 0.000000 0.000000 0.000000 -27.493538 71.475379 26.075848 112.080971 -24.932571 90.149799 108.442199 40.657985 176.974065 42.925903 -3.140777 84.042609 0.000000 0.000000 0.000000 0.000000 0.000000 0.000000 8.902478 -1.817007 49.650071 -5.383029 2.412732 -0.418972 -1.657735 -1.554208 4.539736 0.000000 0.000000 0.000000 6.683856 -4.588764 49.590844 1.009032 4.661063 -0.910277 5.585637 -5.355107 -2.770725 0.000000 0.000000 0.000000
-34.285836 84.048302 342.519325 -1.820691 6.655166 -49.552799 -0.331725 0.117257 49.585182 0.010827 0.059656 -0.104735 -11.124450 0.605943 2.673255 0.000000 0.000000 0.000000 9.155649 8.205107 -6.054302 71.294701 -22.060943 6.299955 68.443314 -33.818900 84.210743 21.284700 37.215467 -55.068096 0.000000 0.000000 0.000000 0.000000 0.000000 0.000000 -26.461011 71.231988 25.279002 106.656200 -20.082850 84.304492 99.046330 44.927011 -176.149854 47.039454 12.061799 97.241138 0.000000 0.000000 0.000000 0.000000 0.000000 0.000000 8.995420 -1.841251 50.059409 -5.357005 2.509299 -0.445477 -1.747064 -1.642690 4.636693 0.000000 0.000000 0.000000 6.729740 -4.510965 49.970234 0.997452 4.574802 -0.901254 5.913479 -4.957579 -2.869176 0.000000 0.000000 0.000000
